# Blender v2.79 (sub 0) OBJ File: ''
# www.blender.org
mtllib rocket3.mtl
o Circle
v -0.000000 0.879965 -0.064399
v -0.012564 0.879965 -0.063161
v -0.024644 0.879965 -0.059497
v -0.035778 0.879965 -0.053546
v -0.045537 0.879965 -0.045537
v -0.053545 0.879965 -0.035778
v -0.059497 0.879965 -0.024644
v -0.063161 0.879965 -0.012564
v -0.064399 0.879965 -0.000000
v -0.063161 0.879965 0.012563
v -0.059497 0.879965 0.024644
v -0.053545 0.879965 0.035778
v -0.045537 0.879965 0.045536
v -0.035778 0.879965 0.053545
v -0.024644 0.879965 0.059496
v -0.012564 0.879965 0.063161
v -0.000000 0.879965 0.064398
v 0.012563 0.879965 0.063161
v 0.024644 0.879965 0.059496
v 0.035778 0.879965 0.053545
v 0.045537 0.879965 0.045536
v 0.053545 0.879965 0.035778
v 0.059496 0.879965 0.024644
v 0.063161 0.879965 0.012563
v 0.064398 0.879965 -0.000000
v 0.063161 0.879965 -0.012564
v 0.059496 0.879965 -0.024645
v 0.053545 0.879965 -0.035778
v 0.045536 0.879965 -0.045537
v 0.035778 0.879965 -0.053546
v 0.024644 0.879965 -0.059497
v 0.012563 0.879965 -0.063161
v -0.000000 1.611237 -0.064399
v -0.012564 1.611237 -0.063161
v -0.024644 1.611237 -0.059497
v -0.035778 1.611237 -0.053546
v -0.045537 1.611237 -0.045537
v -0.053545 1.611237 -0.035778
v -0.059497 1.611237 -0.024644
v -0.063161 1.611237 -0.012564
v -0.064399 1.611237 -0.000000
v -0.063161 1.611237 0.012563
v -0.059497 1.611237 0.024644
v -0.053545 1.611237 0.035778
v -0.045537 1.611237 0.045536
v -0.035778 1.611237 0.053545
v -0.024644 1.611237 0.059496
v -0.012564 1.611237 0.063161
v -0.000000 1.611237 0.064398
v 0.012563 1.611237 0.063161
v 0.024644 1.611237 0.059496
v 0.035778 1.611237 0.053545
v 0.045537 1.611237 0.045536
v 0.053545 1.611237 0.035778
v 0.059496 1.611237 0.024644
v 0.063161 1.611237 0.012563
v 0.064398 1.611237 -0.000000
v 0.063161 1.611237 -0.012564
v 0.059496 1.611237 -0.024645
v 0.053545 1.611237 -0.035778
v 0.045536 1.611237 -0.045537
v 0.035778 1.611237 -0.053546
v 0.024644 1.611237 -0.059497
v 0.012563 1.611237 -0.063161
v -0.000000 1.719116 -0.000000
v -0.000000 1.719116 -0.000000
v -0.000000 1.719116 -0.000000
v -0.000000 1.719116 -0.000000
v -0.000000 1.719116 -0.000000
v -0.000000 1.719116 -0.000000
v -0.000000 1.719116 -0.000000
v -0.000000 1.719116 -0.000000
v -0.000000 1.719116 -0.000000
v -0.000000 1.719116 -0.000000
v -0.000000 1.719116 -0.000000
v -0.000000 1.719116 -0.000000
v -0.000000 1.719116 -0.000000
v -0.000000 1.719116 -0.000000
v -0.000000 1.719116 -0.000000
v -0.000000 1.719116 -0.000000
v -0.000000 1.719116 -0.000000
v -0.000000 1.719116 -0.000000
v -0.000000 1.719116 -0.000000
v -0.000000 1.719116 -0.000000
v -0.000000 1.719116 -0.000000
v -0.000000 1.719116 -0.000000
v -0.000000 1.719116 -0.000000
v -0.000000 1.719116 -0.000000
v -0.000000 1.719116 -0.000000
v -0.000000 1.719116 -0.000000
v -0.000000 1.719116 -0.000000
v -0.000000 1.719116 -0.000000
v -0.000000 1.719116 -0.000000
v -0.000000 1.719116 -0.000000
v -0.000000 1.719116 -0.000000
v -0.000000 1.719116 -0.000000
vn -0.8819 0.0000 -0.4714
vn 0.9952 0.0000 -0.0980
vn -0.9569 0.0000 -0.2903
vn 0.9569 0.0000 -0.2903
vn -0.9952 0.0000 -0.0980
vn 0.8819 0.0000 -0.4714
vn -0.9952 0.0000 0.0980
vn 0.7730 0.0000 -0.6344
vn -0.9569 0.0000 0.2903
vn 0.6344 0.0000 -0.7730
vn -0.8819 0.0000 0.4714
vn 0.4714 0.0000 -0.8819
vn 0.0980 0.0000 0.9952
vn -0.7730 0.0000 0.6344
vn 0.2903 0.0000 -0.9569
vn 0.2903 0.0000 0.9569
vn -0.6344 0.0000 0.7730
vn 0.0980 0.0000 -0.9952
vn 0.4714 0.0000 0.8819
vn -0.4714 0.0000 0.8819
vn -0.0980 0.0000 -0.9952
vn 0.6344 0.0000 0.7730
vn -0.2903 0.0000 0.9569
vn -0.2903 0.0000 -0.9569
vn 0.7730 0.0000 0.6344
vn -0.0980 0.0000 0.9952
vn -0.4714 0.0000 -0.8819
vn 0.8819 0.0000 0.4714
vn -0.6344 0.0000 -0.7730
vn 0.9569 0.0000 0.2903
vn -0.7730 0.0000 -0.6344
vn 0.9952 0.0000 0.0980
vn -0.0843 -0.5107 -0.8556
vn 0.5454 -0.5107 0.6646
vn -0.2496 -0.5107 0.8227
vn -0.2496 -0.5107 -0.8227
vn 0.6646 -0.5107 0.5454
vn -0.0843 -0.5107 0.8556
vn -0.4053 -0.5107 -0.7582
vn 0.7582 -0.5107 0.4053
vn -0.5454 -0.5107 -0.6646
vn 0.8227 -0.5107 0.2496
vn -0.6646 -0.5107 -0.5454
vn 0.8556 -0.5107 0.0843
vn -0.7582 -0.5107 -0.4053
vn 0.8556 -0.5107 -0.0843
vn -0.8227 -0.5107 -0.2496
vn 0.8227 -0.5107 -0.2496
vn -0.8556 -0.5107 -0.0843
vn 0.7582 -0.5107 -0.4053
vn -0.8556 -0.5107 0.0843
vn 0.6646 -0.5107 -0.5454
vn -0.8227 -0.5107 0.2496
vn 0.5454 -0.5107 -0.6646
vn -0.7582 -0.5107 0.4053
vn 0.4053 -0.5107 -0.7582
vn 0.0843 -0.5107 0.8556
vn -0.6646 -0.5107 0.5454
vn 0.2496 -0.5107 -0.8227
vn 0.2496 -0.5107 0.8227
vn -0.5454 -0.5107 0.6646
vn 0.0843 -0.5107 -0.8556
vn 0.4053 -0.5107 0.7582
vn -0.4053 -0.5107 0.7582
usemtl None
s off
f 23//1 22//1 54//1 55//1
f 10//2 9//2 41//2 42//2
f 24//3 23//3 55//3 56//3
f 11//4 10//4 42//4 43//4
f 25//5 24//5 56//5 57//5
f 12//6 11//6 43//6 44//6
f 26//7 25//7 57//7 58//7
f 13//8 12//8 44//8 45//8
f 27//9 26//9 58//9 59//9
f 14//10 13//10 45//10 46//10
f 28//11 27//11 59//11 60//11
f 15//12 14//12 46//12 47//12
f 2//13 1//13 33//13 34//13
f 29//14 28//14 60//14 61//14
f 16//15 15//15 47//15 48//15
f 3//16 2//16 34//16 35//16
f 30//17 29//17 61//17 62//17
f 17//18 16//18 48//18 49//18
f 4//19 3//19 35//19 36//19
f 31//20 30//20 62//20 63//20
f 18//21 17//21 49//21 50//21
f 5//22 4//22 36//22 37//22
f 32//23 31//23 63//23 64//23
f 19//24 18//24 50//24 51//24
f 6//25 5//25 37//25 38//25
f 1//26 32//26 64//26 33//26
f 20//27 19//27 51//27 52//27
f 7//28 6//28 38//28 39//28
f 21//29 20//29 52//29 53//29
f 8//30 7//30 39//30 40//30
f 22//31 21//31 53//31 54//31
f 9//32 8//32 40//32 41//32
f 50//33 49//33 81//33 82//33
f 37//34 36//34 68//34 69//34
f 64//35 63//35 95//35 96//35
f 51//36 50//36 82//36 83//36
f 38//37 37//37 69//37 70//37
f 33//38 64//38 96//38 65//38
f 52//39 51//39 83//39 84//39
f 39//40 38//40 70//40 71//40
f 53//41 52//41 84//41 85//41
f 40//42 39//42 71//42 72//42
f 54//43 53//43 85//43 86//43
f 41//44 40//44 72//44 73//44
f 55//45 54//45 86//45 87//45
f 42//46 41//46 73//46 74//46
f 56//47 55//47 87//47 88//47
f 43//48 42//48 74//48 75//48
f 57//49 56//49 88//49 89//49
f 44//50 43//50 75//50 76//50
f 58//51 57//51 89//51 90//51
f 45//52 44//52 76//52 77//52
f 59//53 58//53 90//53 91//53
f 46//54 45//54 77//54 78//54
f 60//55 59//55 91//55 92//55
f 47//56 46//56 78//56 79//56
f 34//57 33//57 65//57 66//57
f 61//58 60//58 92//58 93//58
f 48//59 47//59 79//59 80//59
f 35//60 34//60 66//60 67//60
f 62//61 61//61 93//61 94//61
f 49//62 48//62 80//62 81//62
f 36//63 35//63 67//63 68//63
f 63//64 62//64 94//64 95//64
