# Blender v2.79 (sub 0) OBJ File: ''
# www.blender.org
mtllib Javelin.mtl
o Cone
v -0.000000 4.382602 -0.045177
v 0.000000 4.609608 0.000000
v 0.022588 4.382602 -0.039124
v 0.039124 4.382602 -0.022588
v 0.045177 4.382602 0.000000
v 0.039124 4.382602 0.022588
v 0.022588 4.382602 0.039124
v 0.000000 4.382602 0.045177
v -0.022588 4.382602 0.039124
v -0.039124 4.382602 0.022588
v -0.045177 4.382602 0.000000
v -0.039124 4.382602 -0.022588
v -0.022588 4.382602 -0.039124
v -0.000000 4.382602 -0.022806
v 0.011403 4.382602 -0.019750
v 0.019750 4.382602 -0.011403
v 0.022806 4.382602 0.000000
v 0.019750 4.382602 0.011403
v 0.011403 4.382602 0.019750
v 0.000000 4.382602 0.022806
v -0.011403 4.382602 0.019750
v -0.019750 4.382602 0.011403
v -0.022806 4.382602 0.000000
v -0.019750 4.382602 -0.011403
v -0.011403 4.382602 -0.019750
v 0.000000 1.736356 -0.035158
v 0.017579 1.736356 -0.030447
v 0.030448 1.736356 -0.017579
v 0.035158 1.736356 0.000000
v 0.030448 1.736356 0.017579
v 0.017579 1.736356 0.030447
v 0.000000 1.736356 0.035158
v -0.017578 1.736356 0.030447
v -0.030447 1.736356 0.017579
v -0.035157 1.736356 0.000000
v -0.030447 1.736356 -0.017579
v -0.017578 1.736356 -0.030447
v 0.000000 0.824448 -0.126030
v 0.063015 0.824448 -0.109145
v 0.109145 0.824448 -0.063015
v 0.126030 0.824448 -0.000000
v 0.109145 0.824448 0.063015
v 0.063015 0.824448 0.109145
v 0.000000 0.824448 0.126030
v -0.063014 0.824448 0.109145
v -0.109144 0.824448 0.063015
v -0.126029 0.824448 0.000000
v -0.109144 0.824448 -0.063015
v -0.063014 0.824448 -0.109145
v 0.000000 0.824448 -0.077563
v 0.038782 0.824448 -0.067172
v 0.067172 0.824448 -0.038782
v 0.077564 0.824448 0.000000
v 0.067172 0.824448 0.038782
v 0.038782 0.824448 0.067172
v 0.000000 0.824448 0.077563
v -0.038781 0.824448 0.067172
v -0.067171 0.824448 0.038782
v -0.077563 0.824448 0.000000
v -0.067171 0.824448 -0.038782
v -0.038781 0.824448 -0.067172
v 0.000005 -4.159698 -0.077563
v 0.038787 -4.159698 -0.067172
v 0.067177 -4.159698 -0.038782
v 0.077568 -4.159698 0.000000
v 0.067177 -4.159698 0.038782
v 0.038787 -4.159698 0.067172
v 0.000005 -4.159698 0.077563
v -0.038777 -4.159698 0.067172
v -0.067167 -4.159698 0.038782
v -0.077558 -4.159698 0.000000
v -0.067167 -4.159698 -0.038782
v -0.038777 -4.159698 -0.067172
v 0.000004 -4.839794 0.000000
v 0.000004 -4.839794 0.000000
v 0.000004 -4.839794 0.000000
v 0.000004 -4.839794 0.000000
v 0.000004 -4.839794 0.000000
v 0.000004 -4.839794 0.000000
v 0.000004 -4.839794 0.000000
v 0.000004 -4.839794 0.000000
v 0.000004 -4.839794 0.000000
v 0.000004 -4.839794 0.000000
v 0.000004 -4.839794 0.000000
v 0.000004 -4.839794 0.000000
v 0.000000 1.639525 0.057871
v 0.000000 1.487540 0.093885
v 0.000000 1.335555 0.116841
v 0.000000 1.183570 0.122111
v 0.000000 1.031586 0.117161
v 0.058581 1.031586 0.101465
v 0.061056 1.183570 0.105751
v 0.058421 1.335555 0.101187
v 0.046943 1.487540 0.081307
v 0.028936 1.639525 0.050118
v 0.057871 1.639525 0.000000
v 0.093886 1.487540 0.000000
v 0.116841 1.335555 -0.000000
v 0.122111 1.183570 -0.000000
v 0.117162 1.031586 0.000000
v 0.101465 1.031586 -0.058581
v 0.105752 1.183570 -0.061055
v 0.101188 1.335555 -0.058420
v 0.081308 1.487540 -0.046943
v 0.050118 1.639525 -0.028936
v -0.050117 1.639525 -0.028935
v -0.081307 1.487540 -0.046943
v -0.101187 1.335555 -0.058420
v -0.105751 1.183570 -0.061055
v -0.101464 1.031586 -0.058581
v -0.117161 1.031586 0.000000
v -0.122110 1.183570 0.000000
v -0.116841 1.335555 0.000000
v -0.093885 1.487540 0.000000
v -0.057871 1.639525 0.000000
v -0.028935 1.639525 0.050118
v -0.046942 1.487540 0.081307
v -0.058420 1.335555 0.101187
v -0.061055 1.183570 0.105751
v -0.058580 1.031586 0.101465
v 0.050118 1.639525 0.028936
v 0.081308 1.487540 0.046943
v 0.101188 1.335555 0.058420
v 0.105752 1.183570 0.061055
v 0.101465 1.031586 0.058581
v -0.028935 1.639525 -0.050118
v -0.046942 1.487540 -0.081307
v -0.058420 1.335555 -0.101187
v -0.061055 1.183570 -0.105751
v -0.058580 1.031586 -0.101465
v 0.028936 1.639525 -0.050118
v 0.046943 1.487540 -0.081307
v 0.058421 1.335555 -0.101187
v 0.061056 1.183570 -0.105751
v 0.058581 1.031586 -0.101465
v 0.000000 1.031586 -0.117161
v 0.000000 1.183570 -0.122111
v 0.000000 1.335555 -0.116841
v 0.000000 1.487540 -0.093885
v 0.000000 1.639525 -0.057871
v -0.050117 1.639525 0.028936
v -0.081307 1.487540 0.046943
v -0.101187 1.335555 0.058421
v -0.105751 1.183570 0.061055
v -0.101464 1.031586 0.058581
vt 0.144303 0.169380
vt 0.169312 0.201532
vt 0.141186 0.172068
vt 0.138356 0.175057
vt 0.135843 0.178315
vt 0.133671 0.181811
vt 0.131863 0.185508
vt 0.130437 0.189369
vt 0.129408 0.193353
vt 0.128787 0.197422
vt 0.128579 0.201532
vt 0.155044 0.163379
vt 0.151267 0.165014
vt 0.147674 0.167021
vt 0.182746 0.176681
vt 0.179182 0.178738
vt 0.178163 0.174935
vt 0.179963 0.173897
vt 0.250798 0.265724
vt 0.246166 0.265669
vt 0.246167 0.000230
vt 0.250799 0.000285
vt 0.175067 0.178738
vt 0.171503 0.176681
vt 0.174287 0.173897
vt 0.176086 0.174935
vt 0.171503 0.165437
vt 0.175067 0.163379
vt 0.176086 0.167182
vt 0.174287 0.168221
vt 0.182746 0.165437
vt 0.184804 0.169001
vt 0.181001 0.170020
vt 0.179963 0.168221
vt 0.169445 0.173116
vt 0.169445 0.169001
vt 0.173248 0.170020
vt 0.173248 0.172098
vt 0.184804 0.173116
vt 0.181001 0.172098
vt 0.179182 0.163379
vt 0.178163 0.167182
vt 0.135900 0.039559
vt 0.124672 0.040352
vt 0.121695 0.001816
vt 0.133803 0.000957
vt 0.264694 0.265888
vt 0.260062 0.265833
vt 0.260063 0.000394
vt 0.264695 0.000449
vt 0.287854 0.266161
vt 0.283222 0.266106
vt 0.283223 0.000667
vt 0.287855 0.000722
vt 0.241534 0.265615
vt 0.241535 0.000176
vt 0.255430 0.265779
vt 0.255431 0.000340
vt 0.278590 0.266052
vt 0.278591 0.000612
vt 0.273958 0.265997
vt 0.269326 0.265942
vt 0.269327 0.000503
vt 0.273959 0.000558
vt 0.236902 0.265560
vt 0.236903 0.000121
vt 0.232270 0.265506
vt 0.232271 0.000067
vt 0.091339 0.200486
vt 0.085599 0.190543
vt 0.093837 0.188336
vt 0.097370 0.194455
vt 0.169681 0.039007
vt 0.158390 0.038871
vt 0.158179 0.000067
vt 0.170445 0.000067
vt 0.227052 0.043854
vt 0.215466 0.042479
vt 0.219806 0.003097
vt 0.232137 0.004558
vt 0.113447 0.041403
vt 0.109638 0.002925
vt 0.147135 0.039058
vt 0.145964 0.000368
vt 0.203914 0.041242
vt 0.207451 0.001902
vt 0.192431 0.040218
vt 0.181023 0.039462
vt 0.182754 0.000375
vt 0.195094 0.000990
vt 0.102233 0.042656
vt 0.097625 0.004270
vt 0.091088 0.044024
vt 0.085599 0.005864
vt 0.122705 0.200486
vt 0.112763 0.206226
vt 0.110555 0.197988
vt 0.116674 0.194455
vt 0.122705 0.169120
vt 0.128446 0.179062
vt 0.120207 0.181270
vt 0.116674 0.175151
vt 0.085599 0.179062
vt 0.093837 0.181270
vt 0.101282 0.206226
vt 0.103489 0.197988
vt 0.128446 0.190543
vt 0.120207 0.188336
vt 0.091339 0.169120
vt 0.097370 0.175151
vt 0.101282 0.163379
vt 0.112763 0.163379
vt 0.110555 0.171618
vt 0.103489 0.171618
vt 0.141890 0.161327
vt 0.139153 0.163224
vt 0.127892 0.148846
vt 0.132483 0.145856
vt 0.111414 0.125085
vt 0.119327 0.121174
vt 0.099991 0.099012
vt 0.110395 0.095937
vt 0.094071 0.071751
vt 0.105292 0.069976
vt 0.164052 0.157656
vt 0.160827 0.157125
vt 0.162808 0.139628
vt 0.167922 0.140453
vt 0.165594 0.113817
vt 0.173231 0.114872
vt 0.167499 0.090032
vt 0.176873 0.090974
vt 0.168765 0.065836
vt 0.179292 0.066519
vt 0.170234 0.159771
vt 0.167200 0.158539
vt 0.172954 0.141813
vt 0.177859 0.143719
vt 0.180875 0.116598
vt 0.188531 0.119044
vt 0.186365 0.092494
vt 0.196051 0.094630
vt 0.189955 0.067609
vt 0.200828 0.069089
vt 0.154292 0.157124
vt 0.151053 0.157653
vt 0.147344 0.140314
vt 0.152484 0.139558
vt 0.142633 0.114458
vt 0.150306 0.113612
vt 0.139507 0.090491
vt 0.148871 0.089798
vt 0.137429 0.066239
vt 0.147885 0.065702
vt 0.144813 0.159760
vt 0.137296 0.143448
vt 0.127159 0.118175
vt 0.120364 0.093534
vt 0.116207 0.068418
vt 0.173114 0.161344
vt 0.182583 0.146185
vt 0.196196 0.122292
vt 0.206034 0.097444
vt 0.212018 0.070924
vt 0.157562 0.156947
vt 0.157650 0.139330
vt 0.157955 0.113401
vt 0.158183 0.089644
vt 0.158313 0.065565
vt 0.147881 0.158533
vt 0.142268 0.141607
vt 0.134922 0.115963
vt 0.130032 0.091730
vt 0.126892 0.067154
vt 0.175799 0.163246
vt 0.187043 0.149214
vt 0.203831 0.126436
vt 0.216454 0.101014
vt 0.223704 0.073048
vt 0.056997 0.999933
vt 0.049881 0.999933
vt 0.049056 0.120050
vt 0.056004 0.119742
vt 0.069911 0.118517
vt 0.062955 0.119232
vt 0.042062 0.000101
vt 0.042044 0.000098
vt 0.007183 0.999924
vt 0.000067 0.999922
vt 0.000367 0.116539
vt 0.007340 0.117656
vt 0.028532 0.999930
vt 0.021415 0.999928
vt 0.021262 0.119265
vt 0.028214 0.119763
vt 0.042764 0.999933
vt 0.042110 0.120156
vt 0.085465 0.999931
vt 0.078348 0.999932
vt 0.076874 0.117596
vt 0.083846 0.116468
vt 0.014299 0.999926
vt 0.014304 0.118564
vt 0.035648 0.999932
vt 0.035163 0.120061
vt 0.071231 0.999933
vt 0.064114 0.999933
vt 0.042033 0.000098
vt 0.042024 0.000088
vt 0.042011 0.000091
vt 0.042005 0.000088
vt 0.041911 0.000079
vt 0.041897 0.000079
vt 0.041894 0.000074
vt 0.041984 0.000073
vt 0.042041 0.000067
vt 0.042033 0.000079
vn 0.2542 0.1888 -0.9486
vn 0.6944 0.1888 -0.6944
vn 0.9486 0.1888 -0.2542
vn 0.9486 0.1888 0.2542
vn 0.6944 0.1888 0.6944
vn 0.2542 0.1888 0.9486
vn -0.2542 0.1888 0.9486
vn -0.6944 0.1888 0.6944
vn -0.9486 0.1888 0.2542
vn -0.9486 0.1888 -0.2542
vn -0.6944 0.1888 -0.6944
vn -0.2542 0.1888 -0.9486
vn 0.0000 -1.0000 0.0000
vn 0.2588 0.0045 0.9659
vn 0.2586 0.0413 0.9651
vn 0.9659 0.0045 -0.2588
vn -0.9659 0.0045 -0.2588
vn -0.2588 0.0045 0.9659
vn 0.9659 0.0045 0.2588
vn -0.7071 0.0045 -0.7071
vn 0.2588 0.0045 -0.9659
vn -0.7071 0.0045 0.7071
vn 0.7071 0.0045 0.7071
vn -0.2588 0.0045 -0.9659
vn 0.7071 0.0045 -0.7071
vn -0.9659 0.0045 0.2588
vn 0.9651 0.0413 -0.2586
vn -0.9651 0.0413 -0.2586
vn -0.2586 0.0413 0.9651
vn 0.9651 0.0413 0.2586
vn -0.7065 0.0413 -0.7065
vn 0.2586 0.0413 -0.9651
vn -0.7065 0.0413 0.7065
vn 0.7065 0.0413 0.7065
vn -0.2586 0.0413 -0.9651
vn 0.7065 0.0413 -0.7065
vn -0.9651 0.0413 0.2586
vn -0.9420 0.2210 0.2524
vn -0.9416 0.2231 0.2523
vn -0.9558 0.1444 0.2561
vn -0.9654 0.0335 0.2587
vn -0.9654 -0.0314 0.2587
vn 0.6896 0.2210 -0.6896
vn 0.6893 0.2231 -0.6893
vn 0.6997 0.1444 -0.6997
vn 0.7067 0.0335 -0.7067
vn 0.7068 -0.0314 -0.7068
vn -0.2524 0.2210 -0.9420
vn -0.2523 0.2231 -0.9416
vn -0.2561 0.1444 -0.9558
vn -0.2587 0.0335 -0.9654
vn -0.2587 -0.0314 -0.9654
vn 0.6896 0.2210 0.6896
vn 0.6893 0.2231 0.6893
vn 0.6997 0.1444 0.6997
vn 0.7067 0.0335 0.7067
vn 0.7068 -0.0314 0.7068
vn -0.6896 0.2210 0.6896
vn -0.6893 0.2231 0.6893
vn -0.6997 0.1444 0.6997
vn -0.7067 0.0335 0.7067
vn -0.7068 -0.0314 0.7068
vn 0.2524 0.2210 -0.9420
vn 0.2523 0.2231 -0.9416
vn 0.2561 0.1444 -0.9558
vn 0.2587 0.0335 -0.9654
vn 0.2587 -0.0314 -0.9654
vn -0.6896 0.2210 -0.6896
vn -0.6893 0.2231 -0.6893
vn -0.6997 0.1444 -0.6997
vn -0.7067 0.0335 -0.7067
vn -0.7068 -0.0314 -0.7068
vn 0.9420 0.2210 0.2524
vn 0.9416 0.2231 0.2523
vn 0.9558 0.1444 0.2561
vn 0.9654 0.0335 0.2587
vn 0.9654 -0.0314 0.2587
vn -0.2524 0.2210 0.9420
vn -0.2523 0.2231 0.9416
vn -0.2561 0.1444 0.9558
vn -0.2587 0.0335 0.9654
vn -0.2587 -0.0314 0.9654
vn -0.9420 0.2210 -0.2524
vn -0.9416 0.2231 -0.2523
vn -0.9558 0.1444 -0.2561
vn -0.9654 0.0335 -0.2587
vn -0.9654 -0.0314 -0.2587
vn 0.9420 0.2210 -0.2524
vn 0.9416 0.2231 -0.2523
vn 0.9558 0.1444 -0.2561
vn 0.9654 0.0335 -0.2587
vn 0.9654 -0.0314 -0.2587
vn 0.2524 0.2210 0.9420
vn 0.2523 0.2231 0.9416
vn 0.2561 0.1444 0.9558
vn 0.2587 0.0335 0.9654
vn 0.2587 -0.0314 0.9654
vn 0.7071 0.0000 -0.7071
vn -0.2573 -0.1095 -0.9601
vn -0.9659 -0.0000 0.2588
vn 0.2588 0.0000 0.9659
vn 0.9659 0.0000 -0.2588
vn -0.9659 -0.0000 -0.2588
vn -0.2588 -0.0000 0.9659
vn 0.9659 0.0000 0.2588
vn -0.7071 -0.0000 -0.7071
vn 0.2588 0.0000 -0.9659
vn -0.7071 -0.0000 0.7071
vn 0.7071 0.0000 0.7071
vn -0.2588 -0.0000 -0.9659
vn 0.0000 0.0000 1.0000
vn 0.7029 -0.1095 -0.7029
vn -0.9601 -0.1095 0.2573
vn 0.2573 -0.1095 0.9601
vn 0.9601 -0.1095 -0.2573
vn -0.9601 -0.1095 -0.2573
vn -0.2573 -0.1095 0.9601
vn 0.9601 -0.1095 0.2573
vn -0.7029 -0.1095 -0.7029
vn 0.2573 -0.1095 -0.9601
vn -0.7029 -0.1095 0.7029
vn 0.7029 -0.1095 0.7029
usemtl Metal
s off
f 1/1/1 2/2/1 3/3/1
f 3/3/2 2/2/2 4/4/2
f 4/4/3 2/2/3 5/5/3
f 5/5/4 2/2/4 6/6/4
f 6/6/5 2/2/5 7/7/5
f 7/7/6 2/2/6 8/8/6
f 8/8/7 2/2/7 9/9/7
f 9/9/8 2/2/8 10/10/8
f 10/10/9 2/2/9 11/11/9
f 11/12/10 2/2/10 12/13/10
f 12/13/11 2/2/11 13/14/11
f 13/14/12 2/2/12 1/1/12
f 7/15/13 8/16/13 20/17/13 19/18/13
f 19/19/14 20/20/14 32/21/14 31/22/14
f 9/23/13 10/24/13 22/25/13 21/26/13
f 13/27/13 1/28/13 14/29/13 25/30/13
f 4/31/13 5/32/13 17/33/13 16/34/13
f 11/35/13 12/36/13 24/37/13 23/38/13
f 6/39/13 7/15/13 19/18/13 18/40/13
f 1/28/13 3/41/13 15/42/13 14/29/13
f 8/16/13 9/23/13 21/26/13 20/17/13
f 3/41/13 4/31/13 16/34/13 15/42/13
f 10/24/13 11/35/13 23/38/13 22/25/13
f 5/32/13 6/39/13 18/40/13 17/33/13
f 12/36/13 13/27/13 25/30/13 24/37/13
f 91/43/15 90/44/15 44/45/15 43/46/15
f 16/47/16 17/48/16 29/49/16 28/50/16
f 23/51/17 24/52/17 36/53/17 35/54/17
f 20/20/18 21/55/18 33/56/18 32/21/18
f 17/48/19 18/57/19 30/58/19 29/49/19
f 24/52/20 25/59/20 37/60/20 36/53/20
f 14/61/21 15/62/21 27/63/21 26/64/21
f 21/55/22 22/65/22 34/66/22 33/56/22
f 18/57/23 19/19/23 31/22/23 30/58/23
f 25/59/24 14/61/24 26/64/24 37/60/24
f 15/62/25 16/47/25 28/50/25 27/63/25
f 22/65/26 23/67/26 35/68/26 34/66/26
f 46/69/13 47/70/13 59/71/13 58/72/13
f 101/73/27 100/74/27 41/75/27 40/76/27
f 111/77/28 110/78/28 48/79/28 47/80/28
f 90/44/29 120/81/29 45/82/29 44/45/29
f 100/74/30 125/83/30 42/84/30 41/75/30
f 110/78/31 130/85/31 49/86/31 48/79/31
f 136/87/32 135/88/32 39/89/32 38/90/32
f 120/81/33 145/91/33 46/92/33 45/82/33
f 125/83/34 91/43/34 43/46/34 42/84/34
f 130/85/35 136/87/35 38/90/35 49/86/35
f 135/88/36 101/73/36 40/76/36 39/89/36
f 145/91/37 111/93/37 47/94/37 46/92/37
f 43/95/13 44/96/13 56/97/13 55/98/13
f 40/99/13 41/100/13 53/101/13 52/102/13
f 47/70/13 48/103/13 60/104/13 59/71/13
f 44/96/13 45/105/13 57/106/13 56/97/13
f 41/100/13 42/107/13 54/108/13 53/101/13
f 48/103/13 49/109/13 61/110/13 60/104/13
f 38/111/13 39/112/13 51/113/13 50/114/13
f 45/105/13 46/69/13 58/72/13 57/106/13
f 42/107/13 43/95/13 55/98/13 54/108/13
f 49/109/13 38/111/13 50/114/13 61/110/13
f 39/112/13 40/99/13 52/102/13 51/113/13
f 34/115/38 35/116/38 115/117/38 141/118/38
f 141/118/39 115/117/39 114/119/39 142/120/39
f 142/120/40 114/119/40 113/121/40 143/122/40
f 143/122/41 113/121/41 112/123/41 144/124/41
f 144/124/42 112/123/42 111/93/42 145/91/42
f 27/125/43 28/126/43 105/127/43 131/128/43
f 131/128/44 105/127/44 104/129/44 132/130/44
f 132/130/45 104/129/45 103/131/45 133/132/45
f 133/132/46 103/131/46 102/133/46 134/134/46
f 134/134/47 102/133/47 101/73/47 135/88/47
f 37/135/48 26/136/48 140/137/48 126/138/48
f 126/138/49 140/137/49 139/139/49 127/140/49
f 127/140/50 139/139/50 138/141/50 128/142/50
f 128/142/51 138/141/51 137/143/51 129/144/51
f 129/144/52 137/143/52 136/87/52 130/85/52
f 30/145/53 31/146/53 95/147/53 121/148/53
f 121/148/54 95/147/54 94/149/54 122/150/54
f 122/150/55 94/149/55 93/151/55 123/152/55
f 123/152/56 93/151/56 92/153/56 124/154/56
f 124/154/57 92/153/57 91/43/57 125/83/57
f 33/155/58 34/115/58 141/118/58 116/156/58
f 116/156/59 141/118/59 142/120/59 117/157/59
f 117/157/60 142/120/60 143/122/60 118/158/60
f 118/158/61 143/122/61 144/124/61 119/159/61
f 119/159/62 144/124/62 145/91/62 120/81/62
f 26/136/63 27/125/63 131/128/63 140/137/63
f 140/137/64 131/128/64 132/130/64 139/139/64
f 139/139/65 132/130/65 133/132/65 138/141/65
f 138/141/66 133/132/66 134/134/66 137/143/66
f 137/143/67 134/134/67 135/88/67 136/87/67
f 36/160/68 37/135/68 126/138/68 106/161/68
f 106/161/69 126/138/69 127/140/69 107/162/69
f 107/162/70 127/140/70 128/142/70 108/163/70
f 108/163/71 128/142/71 129/144/71 109/164/71
f 109/164/72 129/144/72 130/85/72 110/78/72
f 29/165/73 30/145/73 121/148/73 96/166/73
f 96/166/74 121/148/74 122/150/74 97/167/74
f 97/167/75 122/150/75 123/152/75 98/168/75
f 98/168/76 123/152/76 124/154/76 99/169/76
f 99/169/77 124/154/77 125/83/77 100/74/77
f 32/170/78 33/155/78 116/156/78 86/171/78
f 86/171/79 116/156/79 117/157/79 87/172/79
f 87/172/80 117/157/80 118/158/80 88/173/80
f 88/173/81 118/158/81 119/159/81 89/174/81
f 89/174/82 119/159/82 120/81/82 90/44/82
f 35/175/83 36/160/83 106/161/83 115/176/83
f 115/176/84 106/161/84 107/162/84 114/177/84
f 114/177/85 107/162/85 108/163/85 113/178/85
f 113/178/86 108/163/86 109/164/86 112/179/86
f 112/179/87 109/164/87 110/78/87 111/77/87
f 28/126/88 29/165/88 96/166/88 105/127/88
f 105/127/89 96/166/89 97/167/89 104/129/89
f 104/129/90 97/167/90 98/168/90 103/131/90
f 103/131/91 98/168/91 99/169/91 102/133/91
f 102/133/92 99/169/92 100/74/92 101/73/92
f 31/146/93 32/170/93 86/171/93 95/147/93
f 95/147/94 86/171/94 87/172/94 94/149/94
f 94/149/95 87/172/95 88/173/95 93/151/95
f 93/151/96 88/173/96 89/174/96 92/153/96
f 92/153/97 89/174/97 90/44/97 91/43/97
usemtl Wood
f 51/180/98 52/181/98 64/182/98 63/183/98
f 73/184/99 62/185/99 74/186/99 85/187/99
f 58/188/100 59/189/100 71/190/100 70/191/100
f 55/192/101 56/193/101 68/194/101 67/195/101
f 52/181/102 53/196/102 65/197/102 64/182/102
f 59/198/103 60/199/103 72/200/103 71/201/103
f 56/193/104 57/202/104 69/203/104 68/194/104
f 53/196/105 54/204/105 66/205/105 65/197/105
f 60/199/106 61/206/106 73/184/106 72/200/106
f 50/207/107 51/180/107 63/183/107 62/185/107
f 57/202/108 58/188/108 70/191/108 69/203/108
f 54/204/109 55/192/109 67/195/109 66/205/109
f 61/206/110 50/207/110 62/185/110 73/184/110
f 74/186/111 75/208/111 76/209/111 77/210/111 78/211/111 79/212/111 80/213/111 81/214/111 82/215/111 83/216/111 84/217/111 85/187/111
f 63/183/112 64/182/112 76/209/112 75/208/112
f 70/191/113 71/190/113 83/216/113 82/215/113
f 67/195/114 68/194/114 80/213/114 79/212/114
f 64/182/115 65/197/115 77/210/115 76/209/115
f 71/201/116 72/200/116 84/217/116 83/216/116
f 68/194/117 69/203/117 81/214/117 80/213/117
f 65/197/118 66/205/118 78/211/118 77/210/118
f 72/200/119 73/184/119 85/187/119 84/217/119
f 62/185/120 63/183/120 75/208/120 74/186/120
f 69/203/121 70/191/121 82/215/121 81/214/121
f 66/205/122 67/195/122 79/212/122 78/211/122
